<svg width="680" height="656" viewBox="0 0 680 656" xmlns="http://www.w3.org/2000/svg" font-family="'DM Sans', Arial, Helvetica, sans-serif">
<rect width="680" height="656" fill="#ffffff"/>
<defs>
<marker id="arrow" viewBox="0 0 10 10" refX="8" refY="5" markerWidth="6" markerHeight="6" orient="auto-start-reverse"><path d="M2 1L8 5L2 9" fill="none" stroke="#5F5E5A" stroke-width="1.5" stroke-linecap="round" stroke-linejoin="round"/></marker>
</defs>

<rect x="230" y="20" width="220" height="56" rx="8" fill="#E1F5EE" stroke="#0F6E56" stroke-width="0.5"/>
<text x="340" y="46" text-anchor="middle" font-size="14" font-weight="500" fill="#04342C">User inputs</text>
<text x="340" y="64" text-anchor="middle" font-size="12" font-weight="400" fill="#0F6E56">URL, JD, background</text>

<line x1="340" y1="78" x2="340" y2="106" stroke="#5F5E5A" stroke-width="1.5" marker-end="url(#arrow)"/>

<rect x="230" y="110" width="220" height="56" rx="8" fill="#EEEDFE" stroke="#534AB7" stroke-width="0.5"/>
<text x="340" y="136" text-anchor="middle" font-size="14" font-weight="500" fill="#26215C">Researcher agent</text>
<text x="340" y="154" text-anchor="middle" font-size="12" font-weight="400" fill="#534AB7">Tavily company research</text>

<line x1="340" y1="168" x2="340" y2="196" stroke="#5F5E5A" stroke-width="1.5" marker-end="url(#arrow)"/>

<rect x="230" y="200" width="220" height="56" rx="8" fill="#EEEDFE" stroke="#534AB7" stroke-width="0.5"/>
<text x="340" y="226" text-anchor="middle" font-size="14" font-weight="500" fill="#26215C">Analyzer agent</text>
<text x="340" y="244" text-anchor="middle" font-size="12" font-weight="400" fill="#534AB7">Extracts JD requirements</text>

<line x1="340" y1="258" x2="340" y2="286" stroke="#5F5E5A" stroke-width="1.5" marker-end="url(#arrow)"/>

<rect x="230" y="290" width="220" height="56" rx="8" fill="#EEEDFE" stroke="#534AB7" stroke-width="0.5"/>
<text x="340" y="316" text-anchor="middle" font-size="14" font-weight="500" fill="#26215C">Writer agent</text>
<text x="340" y="334" text-anchor="middle" font-size="12" font-weight="400" fill="#534AB7">Resume and cover letter</text>

<line x1="340" y1="348" x2="340" y2="376" stroke="#5F5E5A" stroke-width="1.5" marker-end="url(#arrow)"/>

<rect x="230" y="380" width="220" height="56" rx="8" fill="#EEEDFE" stroke="#534AB7" stroke-width="0.5"/>
<text x="340" y="406" text-anchor="middle" font-size="14" font-weight="500" fill="#26215C">Critic agent</text>
<text x="340" y="424" text-anchor="middle" font-size="12" font-weight="400" fill="#534AB7">Scores and critiques</text>

<line x1="340" y1="438" x2="340" y2="466" stroke="#5F5E5A" stroke-width="1.5" marker-end="url(#arrow)"/>

<rect x="230" y="470" width="220" height="56" rx="8" fill="#FAEEDA" stroke="#854F0B" stroke-width="0.5"/>
<text x="340" y="496" text-anchor="middle" font-size="14" font-weight="500" fill="#412402">Supervisor gate</text>
<text x="340" y="514" text-anchor="middle" font-size="12" font-weight="400" fill="#854F0B">Score 7 or higher?</text>

<text x="352" y="548" text-anchor="start" font-size="12" font-weight="400" fill="#5F5E5A">yes</text>
<line x1="340" y1="528" x2="340" y2="556" stroke="#5F5E5A" stroke-width="1.5" marker-end="url(#arrow)"/>

<path d="M450 498 L524 498 L524 318 L450 318" fill="none" stroke="#5F5E5A" stroke-width="1.5" marker-end="url(#arrow)"/>
<text x="530" y="404" text-anchor="start" font-size="12" font-weight="400" fill="#5F5E5A">if score</text>
<text x="530" y="420" text-anchor="start" font-size="12" font-weight="400" fill="#5F5E5A">below 7</text>

<rect x="230" y="560" width="220" height="56" rx="8" fill="#E1F5EE" stroke="#0F6E56" stroke-width="0.5"/>
<text x="340" y="586" text-anchor="middle" font-size="14" font-weight="500" fill="#04342C">Application package</text>
<text x="340" y="604" text-anchor="middle" font-size="12" font-weight="400" fill="#0F6E56">Ready to send</text>
</svg>
